<svg width="255" height="271" viewBox="0 0 255 271" fill="none" xmlns="http://www.w3.org/2000/svg">
<g clip-path="url(#clip0_68_9)">
<path fill-rule="evenodd" clip-rule="evenodd" d="M223.25 151.77C223.25 217.381 173.362 270.57 111.821 270.57C50.2803 270.57 0.391602 217.381 0.391602 151.77C0.391602 86.1583 50.2803 32.9697 111.821 32.9697C173.362 32.9697 223.25 86.1583 223.25 151.77ZM158.541 156H158.55L158.541 156.01L158.541 156ZM77.8575 156H158.541L158.719 151.68C158.888 142.25 156.815 132.94 152.678 124.6C148.823 116.93 143.055 110.54 136.002 106.15C128.723 101.69 120.46 99.4205 112.065 99.5705C103.614 99.4405 95.2848 101.74 87.95 106.23C80.8309 110.63 74.9968 117.05 71.0948 124.78C66.9116 133.04 64.773 142.3 64.895 151.69C64.7355 161.12 66.9303 170.42 71.2543 178.65C75.4657 186.53 81.6563 193 89.1318 197.32C97.2264 201.94 106.296 204.26 115.479 204.07C122.729 204.16 129.933 202.69 136.639 199.74C142.858 197.02 148.373 192.73 152.688 187.24L145.475 178.25C141.854 182.64 137.343 186.08 132.287 188.32C127.063 190.66 121.454 191.83 115.789 191.76C106.137 192.13 96.7105 188.6 89.3944 181.88C82.4254 175.27 78.2608 165.93 77.8575 156ZM77.8669 145.62C78.4015 136.22 82.2753 127.4 88.6816 120.92L88.6909 120.91L88.644 120.89C94.9377 114.52 103.342 111.06 112.018 111.28C120.75 111.04 129.22 114.49 135.57 120.89C141.939 127.4 145.756 136.23 146.272 145.62H77.8669Z" fill="white"/>
<path d="M223.232 12.95C233.596 12.95 242.01 21.91 242.01 32.97C242.01 44.03 233.605 52.99 223.232 52.99C212.858 52.99 204.454 44.03 204.454 32.97C204.463 21.92 212.867 12.97 223.232 12.95ZM223.232 0C206.151 0 192.307 14.76 192.307 32.97C192.307 51.18 206.151 65.94 223.232 65.94C240.312 65.94 254.156 51.18 254.156 32.97C254.156 14.76 240.312 0 223.232 0Z" fill="white"/>
</g>
<defs>
<clipPath id="clip0_68_9">
<rect width="253.765" height="270.58" fill="white" transform="translate(0.391602)"/>
</clipPath>
</defs>
</svg>
