<svg width="421" height="93" viewBox="0 0 421 93" fill="none" xmlns="http://www.w3.org/2000/svg">
<path d="M110.093 21.815H135.093V24.225H112.708V38.031H132.84V40.441H112.708V54.548H135.35V56.958H110.093V21.815Z" fill="white"/>
<path d="M143.535 20.309H145.993V56.958H143.534L143.535 20.309Z" fill="white"/>
<path d="M153.927 44.206V44.106C153.927 36.676 159.148 30.751 166.076 30.751C173.255 30.751 177.823 36.575 177.823 44.151C177.832 44.4851 177.816 44.8194 177.774 45.151H156.537C156.989 51.527 161.557 55.242 166.578 55.242C168.246 55.2499 169.896 54.8948 171.413 54.2013C172.93 53.5078 174.278 52.4926 175.364 51.226L177.071 52.732C175.778 54.2766 174.155 55.5116 172.322 56.3458C170.489 57.1799 168.492 57.5921 166.478 57.552C159.75 57.561 153.927 52.189 153.927 44.206ZM175.163 42.951C174.812 37.78 171.849 33.011 165.976 33.011C160.905 33.011 156.989 37.278 156.537 42.951H175.163Z" fill="white"/>
<path d="M183.247 44.257V44.157C183.22 40.6547 184.575 37.2832 187.019 34.7744C189.463 32.2655 192.798 30.8219 196.3 30.757C201.12 30.757 204.132 32.967 206.541 35.477L204.784 37.284C202.575 35.025 200.065 33.067 196.25 33.067C190.426 33.067 185.908 37.937 185.908 44.061V44.161C185.908 50.336 190.577 55.261 196.45 55.261C198.104 55.2131 199.729 54.8069 201.211 54.0702C202.693 53.3335 203.998 52.2839 205.035 50.994L206.742 52.5C204.132 55.462 201.019 57.571 196.3 57.571C194.568 57.5547 192.857 57.1972 191.264 56.5192C189.67 55.8411 188.226 54.8556 187.014 53.6191C185.802 52.3827 184.845 50.9194 184.199 49.313C183.552 47.7066 183.229 45.9885 183.247 44.257Z" fill="white"/>
<path d="M215.025 50.381V33.613H211.311V31.354H215.025V23.171H217.486V31.354H226.472V33.613H217.486V50.13C217.486 53.795 219.644 55.1 222.606 55.1C223.914 55.0907 225.202 54.7829 226.372 54.2V56.509C225.071 57.1244 223.645 57.4323 222.205 57.409C218.238 57.41 215.025 55.251 215.025 50.381Z" fill="white"/>
<path d="M233.753 31.354H236.213V38.634C238.221 34.065 242.489 30.751 247.559 30.953V33.664H247.308C241.384 33.664 236.213 38.131 236.213 46.464V56.958H233.753V31.354Z" fill="white"/>
<path d="M250.823 44.257V44.157C250.801 42.4079 251.125 40.6717 251.778 39.0488C252.431 37.426 253.399 35.9487 254.627 34.7025C255.854 33.4564 257.317 32.466 258.93 31.7887C260.543 31.1115 262.274 30.7608 264.023 30.757C265.761 30.7557 267.481 31.1003 269.084 31.7708C270.687 32.4412 272.141 33.424 273.36 34.6619C274.579 35.8999 275.54 37.3681 276.186 38.9812C276.832 40.5942 277.151 42.3196 277.123 44.057V44.157C277.146 45.9065 276.822 47.6433 276.169 49.2667C275.517 50.8901 274.549 52.368 273.321 53.6147C272.093 54.8614 270.631 55.8522 269.017 56.5298C267.404 57.2073 265.673 57.5582 263.923 57.562C262.185 57.5633 260.464 57.2185 258.861 56.5478C257.257 55.877 255.804 54.8938 254.584 53.6553C253.365 52.4168 252.404 50.948 251.759 49.3344C251.113 47.7208 250.795 45.9948 250.823 44.257ZM274.469 44.257V44.157C274.469 37.982 269.851 33.062 263.926 33.062C257.852 33.062 253.484 38.032 253.484 44.056V44.156C253.484 50.331 258.103 55.256 264.027 55.256C270.102 55.251 274.469 50.281 274.469 44.257Z" fill="white"/>
<path d="M282.702 39.487V39.387C282.659 36.9757 283.105 34.5806 284.013 32.3462C284.92 30.1118 286.271 28.0844 287.983 26.3861C289.696 24.6879 291.734 23.354 293.976 22.4649C296.218 21.5758 298.617 21.15 301.027 21.213C307.654 21.213 311.62 23.422 314.883 26.635L309.963 32.308C307.252 29.848 304.491 28.342 300.976 28.342C295.052 28.342 290.785 33.262 290.785 39.286V39.386C290.785 45.41 294.952 50.431 300.976 50.431C304.993 50.431 307.453 48.824 310.214 46.314L315.134 51.284C313.365 53.3537 311.149 54.9941 308.653 56.0814C306.156 57.1686 303.446 57.6742 300.725 57.56C298.344 57.5986 295.979 57.157 293.771 56.2618C291.564 55.3666 289.559 54.036 287.877 52.3493C286.195 50.6626 284.87 48.6545 283.981 46.4447C283.092 44.2348 282.657 41.8686 282.702 39.487Z" fill="white"/>
<path d="M320.859 20.309H328.489V56.958H320.859V20.309Z" fill="white"/>
<path d="M334.364 43.654V43.554C334.364 35.872 339.836 29.547 347.664 29.547C356.65 29.547 360.764 36.525 360.764 44.156C360.764 44.756 360.714 45.456 360.664 46.164H341.945C342.184 47.7057 342.991 49.102 344.209 50.0777C345.426 51.0534 346.965 51.5376 348.521 51.435C349.741 51.4512 350.951 51.2142 352.074 50.739C353.198 50.2637 354.21 49.5606 355.048 48.674L359.416 52.54C358.101 54.1769 356.422 55.4835 354.512 56.3554C352.602 57.2272 350.514 57.6401 348.416 57.561C340.338 57.561 334.364 51.887 334.364 43.654ZM353.341 41.4C352.889 37.986 350.881 35.677 347.668 35.677C344.505 35.677 342.447 37.936 341.844 41.4H353.341Z" fill="white"/>
<path d="M364.838 49.227V49.127C364.838 43.253 369.306 40.543 375.682 40.543C377.922 40.5215 380.148 40.8938 382.259 41.643V41.191C382.259 38.028 380.301 36.271 376.485 36.271C373.937 36.2736 371.415 36.768 369.055 37.727L367.147 31.903C370.42 30.4019 373.992 29.665 377.593 29.748C381.76 29.748 384.772 30.848 386.68 32.76C388.688 34.768 389.591 37.73 389.591 41.344V56.958H382.211V54.046C381.191 55.1794 379.933 56.0732 378.527 56.6634C377.121 57.2536 375.602 57.5256 374.079 57.46C369.005 57.46 364.838 54.548 364.838 49.227ZM382.359 47.47V46.114C380.825 45.4393 379.165 45.0985 377.49 45.114C374.226 45.114 372.218 46.414 372.218 48.829V48.929C372.218 50.988 373.925 52.193 376.385 52.193C379.949 52.189 382.359 50.231 382.359 47.47Z" fill="white"/>
<path d="M396.166 30.048H403.793V33.864C405.55 31.605 407.809 29.547 411.676 29.547C417.448 29.547 420.812 33.362 420.812 39.537V56.958H413.181V41.947C413.181 38.332 411.474 36.475 408.563 36.475C405.652 36.475 403.793 38.332 403.793 41.947V56.958H396.162L396.166 30.048Z" fill="white"/>
<path d="M109.226 83.6L110.654 81.89C111.549 82.7168 112.714 83.1907 113.933 83.224C114.922 83.224 115.518 82.831 115.518 82.188V82.157C115.518 81.545 115.142 81.231 113.306 80.757C111.093 80.192 109.665 79.58 109.665 77.399V77.367C109.665 75.375 111.265 74.057 113.51 74.057C114.991 74.0341 116.434 74.5292 117.59 75.457L116.334 77.277C115.513 76.6357 114.517 76.2581 113.478 76.194C112.552 76.194 112.066 76.617 112.066 77.151V77.182C112.066 77.905 112.537 78.14 114.435 78.626C116.664 79.207 117.919 80.007 117.919 81.926V81.956C117.919 84.138 116.256 85.362 113.886 85.362C112.169 85.367 110.51 84.7398 109.226 83.6Z" fill="white"/>
<path d="M122.343 76.443H119.001V74.215H128.101V76.443H124.759V85.2H122.343V76.443Z" fill="white"/>
<path d="M132.306 74.136H134.535L139.242 85.2H136.716L135.716 82.737H131.071L130.071 85.2H127.608L132.306 74.136ZM134.849 80.602L133.393 77.039L131.93 80.6L134.849 80.602Z" fill="white"/>
<path d="M142.08 76.443H138.738V74.215H147.838V76.443H144.492V85.2H142.075L142.08 76.443Z" fill="white"/>
<path d="M149.801 74.215H152.217V85.2H149.801V74.215Z" fill="white"/>
<path d="M154.476 79.738V79.707C154.462 78.9533 154.602 78.2046 154.885 77.5062C155.169 76.8077 155.591 76.174 156.126 75.6431C156.662 75.1122 157.299 74.6953 158 74.4174C158.7 74.1394 159.45 74.0063 160.204 74.026C161.005 73.9869 161.805 74.1182 162.552 74.4112C163.298 74.7043 163.974 75.1524 164.535 75.726L162.993 77.494C162.255 76.7288 161.246 76.2839 160.184 76.255C159.748 76.2635 159.318 76.3596 158.92 76.5375C158.522 76.7153 158.164 76.9713 157.867 77.2904C157.569 77.6094 157.339 77.9848 157.19 78.3945C157.041 78.8041 156.975 79.2396 156.998 79.675V79.707C156.972 80.1447 157.035 80.5831 157.183 80.996C157.331 81.4088 157.56 81.7876 157.857 82.1098C158.155 82.4321 158.514 82.691 158.914 82.8713C159.313 83.0515 159.745 83.1494 160.184 83.159C160.728 83.154 161.264 83.0372 161.761 82.8158C162.258 82.5944 162.704 82.2731 163.071 81.872L164.609 83.426C164.056 84.0722 163.364 84.5845 162.584 84.9242C161.805 85.2639 160.958 85.4221 160.109 85.387C159.364 85.3991 158.625 85.2611 157.935 84.9813C157.245 84.7015 156.619 84.2856 156.093 83.7584C155.567 83.2312 155.153 82.6035 154.875 81.9128C154.597 81.222 154.462 80.4824 154.476 79.738Z" fill="white"/>
<path d="M170.762 79.738V79.707C170.748 78.9533 170.888 78.2046 171.171 77.5062C171.455 76.8077 171.877 76.174 172.412 75.6431C172.948 75.1122 173.585 74.6953 174.286 74.4174C174.986 74.1394 175.736 74.0063 176.49 74.026C177.291 73.9869 178.091 74.1182 178.838 74.4112C179.584 74.7043 180.26 75.1524 180.821 75.726L179.283 77.499C178.545 76.7336 177.536 76.2887 176.474 76.26C176.038 76.2685 175.608 76.3646 175.21 76.5425C174.812 76.7203 174.454 76.9763 174.157 77.2954C173.859 77.6144 173.629 77.9898 173.48 78.3995C173.331 78.8091 173.265 79.2446 173.288 79.68V79.712C173.262 80.1497 173.325 80.5881 173.473 81.001C173.621 81.4138 173.85 81.7926 174.147 82.1148C174.445 82.4371 174.804 82.696 175.204 82.8763C175.603 83.0566 176.035 83.1544 176.474 83.164C177.017 83.159 177.554 83.0422 178.051 82.8208C178.548 82.5994 178.994 82.2781 179.361 81.877L180.899 83.431C180.346 84.0773 179.654 84.5896 178.874 84.9293C178.095 85.269 177.248 85.4272 176.399 85.392C175.654 85.4045 174.914 85.2667 174.223 84.9868C173.532 84.7068 172.905 84.2906 172.379 83.7628C171.853 83.235 171.438 82.6066 171.16 81.9151C170.883 81.2236 170.747 80.4831 170.762 79.738Z" fill="white"/>
<path d="M182.827 74.215H185.243V83H190.72V85.2H182.827V74.215Z" fill="white"/>
<path d="M192.54 74.215H200.825V76.364H194.941V78.593H200.119V80.742H194.941V83.05H200.904V85.2H192.54V74.215Z" fill="white"/>
<path d="M206.817 74.136H209.046L213.753 85.2H211.227L210.227 82.737H205.583L204.583 85.2H202.12L206.817 74.136ZM209.359 80.602L207.9 77.039L206.441 80.6L209.359 80.602Z" fill="white"/>
<path d="M215.446 74.215H217.674L222.821 80.978V74.215H225.207V85.2H223.151L217.831 78.217V85.2H215.446V74.215Z" fill="white"/>
<path d="M227.951 74.215H230.368V85.2H227.951V74.215Z" fill="white"/>
<path d="M233.113 74.215H235.341L240.488 80.978V74.215H242.874V85.2H240.818L235.498 78.217V85.2H233.113V74.215Z" fill="white"/>
<path d="M245.023 79.738V79.707C245.017 78.9527 245.162 78.2049 245.451 77.5078C245.739 76.8108 246.164 76.1787 246.701 75.6489C247.238 75.1192 247.876 74.7026 248.577 74.4238C249.278 74.1451 250.028 74.0098 250.782 74.026C252.362 73.9426 253.912 74.4839 255.097 75.533L253.575 77.368C252.802 76.6332 251.77 76.2332 250.704 76.255C249.833 76.2927 249.012 76.6735 248.421 77.3143C247.83 77.9551 247.516 78.8038 247.549 79.675V79.707C247.522 80.1581 247.589 80.6098 247.745 81.034C247.901 81.4582 248.142 81.8457 248.454 82.1724C248.766 82.4992 249.143 82.7582 249.559 82.9333C249.976 83.1083 250.424 83.1957 250.876 83.19C251.685 83.2149 252.481 82.9843 253.152 82.531V80.962H250.719V78.875H255.493V83.645C254.191 84.7737 252.524 85.3926 250.801 85.387C250.043 85.4257 249.285 85.307 248.575 85.0385C247.865 84.77 247.218 84.3575 246.676 83.8269C246.133 83.2963 245.706 82.6591 245.421 81.9554C245.137 81.2517 245.001 80.4967 245.023 79.738Z" fill="white"/>
<path d="M261.764 83.6L263.192 81.89C264.088 82.7166 265.253 83.1905 266.472 83.224C267.46 83.224 268.057 82.831 268.057 82.188V82.157C268.057 81.545 267.68 81.231 265.844 80.757C263.632 80.192 262.204 79.58 262.204 77.399V77.367C262.204 75.375 263.804 74.057 266.048 74.057C267.529 74.0337 268.973 74.5289 270.128 75.457L268.873 77.277C268.052 76.6357 267.056 76.2581 266.017 76.194C265.091 76.194 264.605 76.617 264.605 77.151V77.182C264.605 77.905 265.075 78.14 266.974 78.626C269.202 79.207 270.458 80.007 270.458 81.926V81.956C270.458 84.138 268.794 85.362 266.425 85.362C264.707 85.3672 263.048 84.74 261.764 83.6Z" fill="white"/>
<path d="M272.559 74.215H277.047C279.668 74.215 281.247 75.768 281.247 78.015V78.046C281.247 80.589 279.27 81.907 276.807 81.907H274.971V85.207H272.554L272.559 74.215ZM276.89 79.754C277.127 79.7842 277.368 79.7638 277.597 79.6943C277.826 79.6249 278.038 79.5078 278.219 79.3508C278.4 79.1938 278.545 79.0005 278.646 78.7834C278.747 78.5663 278.8 78.3303 278.804 78.091V78.059C278.804 76.976 278.051 76.396 276.843 76.396H274.976V79.754H276.89Z" fill="white"/>
<path d="M283.04 74.215H291.326V76.364H285.441V78.593H290.619V80.742H285.441V83.05H291.404V85.2H283.04V74.215Z" fill="white"/>
<path d="M293.066 79.738V79.707C293.052 78.9533 293.192 78.2046 293.475 77.5062C293.759 76.8077 294.181 76.174 294.716 75.6431C295.252 75.1122 295.889 74.6953 296.59 74.4174C297.29 74.1394 298.04 74.0063 298.794 74.026C299.595 73.9869 300.395 74.1182 301.142 74.4112C301.888 74.7043 302.564 75.1524 303.125 75.726L301.587 77.499C300.849 76.7338 299.84 76.2889 298.778 76.26C298.342 76.2685 297.912 76.3646 297.514 76.5425C297.116 76.7203 296.758 76.9763 296.461 77.2954C296.163 77.6144 295.933 77.9898 295.784 78.3995C295.635 78.8091 295.569 79.2446 295.592 79.68V79.712C295.566 80.1497 295.629 80.5881 295.777 81.001C295.925 81.4138 296.154 81.7926 296.451 82.1148C296.749 82.4371 297.108 82.696 297.508 82.8763C297.907 83.0566 298.339 83.1544 298.778 83.164C299.322 83.159 299.858 83.0422 300.355 82.8208C300.852 82.5994 301.298 82.2781 301.665 81.877L303.203 83.431C302.65 84.0772 301.958 84.5895 301.178 84.9292C300.399 85.2689 299.552 85.4271 298.703 85.392C297.958 85.4047 297.217 85.2669 296.527 84.9871C295.836 84.7072 295.209 84.2909 294.683 83.7631C294.156 83.2353 293.742 82.6068 293.464 81.9152C293.186 81.2237 293.051 80.4832 293.066 79.738Z" fill="white"/>
<path d="M305.241 74.215H307.657V85.2H305.241V74.215Z" fill="white"/>
<path d="M314.17 74.136H316.398L321.106 85.2H318.579L317.579 82.737H312.934L311.934 85.2H309.47L314.17 74.136ZM316.712 80.602L315.252 77.039L313.793 80.6L316.712 80.602Z" fill="white"/>
<path d="M322.799 74.215H325.215V83H330.693V85.2H322.8L322.799 74.215Z" fill="white"/>
<path d="M332.619 74.215H335.036V85.2H332.619V74.215Z" fill="white"/>
<path d="M337.028 83.6L338.457 81.89C339.353 82.7167 340.518 83.1907 341.736 83.224C342.725 83.224 343.321 82.831 343.321 82.188V82.157C343.321 81.545 342.944 81.231 341.108 80.757C338.896 80.192 337.468 79.58 337.468 77.399V77.367C337.468 75.375 339.069 74.057 341.312 74.057C342.794 74.0337 344.237 74.5289 345.392 75.457L344.137 77.277C343.317 76.6357 342.321 76.2581 341.281 76.194C340.355 76.194 339.868 76.617 339.868 77.151V77.182C339.868 77.905 340.34 78.14 342.238 78.626C344.466 79.207 345.722 80.007 345.722 81.926V81.956C345.722 84.138 344.058 85.362 341.689 85.362C339.972 85.367 338.313 84.7398 337.028 83.6Z" fill="white"/>
<path d="M350.147 76.443H346.805V74.215H355.905V76.443H352.563V85.2H350.146L350.147 76.443Z" fill="white"/>
<path d="M356.768 83.6L358.195 81.89C359.091 82.7166 360.256 83.1905 361.475 83.224C362.464 83.224 363.06 82.831 363.06 82.188V82.157C363.06 81.545 362.684 81.231 360.848 80.757C358.635 80.192 357.207 79.58 357.207 77.399V77.367C357.207 75.375 358.807 74.057 361.052 74.057C362.533 74.0341 363.976 74.5292 365.132 75.457L363.876 77.277C363.055 76.6357 362.059 76.2581 361.02 76.194C360.094 76.194 359.608 76.617 359.608 77.151V77.182C359.608 77.905 360.078 78.14 361.977 78.626C364.206 79.207 365.461 80.007 365.461 81.926V81.956C365.461 84.138 363.798 85.362 361.429 85.362C359.711 85.3672 358.052 84.74 356.768 83.6Z" fill="white"/>
<path d="M81.1927 4.405C82.5396 4.40342 83.8566 4.80135 84.9772 5.54846C86.0979 6.29557 86.9717 7.35828 87.4882 8.60214C88.0047 9.846 88.1407 11.2151 87.8789 12.5363C87.6171 13.8574 86.9693 15.0712 86.0175 16.0241C85.0657 16.9771 83.8527 17.6263 82.5319 17.8896C81.211 18.1529 79.8417 18.0186 78.5973 17.5035C77.3528 16.9885 76.2891 16.1159 75.5406 14.9962C74.7922 13.8764 74.3927 12.5598 74.3927 11.213C74.3927 9.40879 75.1089 7.67836 76.3839 6.40184C77.6589 5.12533 79.3885 4.40712 81.1927 4.405ZM81.1927 0.0050004C78.9749 0.00559399 76.8071 0.663856 74.9634 1.89654C73.1197 3.12922 71.683 4.88095 70.8349 6.93021C69.9869 8.97946 69.7655 11.2342 70.1989 13.4092C70.6323 15.5843 71.701 17.5819 73.2698 19.1496C74.8386 20.7173 76.837 21.7845 79.0124 22.2164C81.1877 22.6482 83.4423 22.4253 85.4909 21.5757C87.5396 20.7262 89.2903 19.2882 90.5216 17.4437C91.753 15.5991 92.4097 13.4308 92.4087 11.213C92.4087 9.74024 92.1186 8.2819 91.5549 6.92128C90.9912 5.56066 90.165 4.32441 89.1235 3.28315C88.0819 2.24189 86.8454 1.41601 85.4847 0.852678C84.1239 0.289348 82.6655 -0.000393632 81.1927 4.01357e-07V0.0050004Z" fill="white"/>
<path d="M40.7977 11.213C32.8061 11.213 24.994 13.5828 18.3493 18.0227C11.7045 22.4626 6.52557 28.7732 3.46737 36.1565C0.409164 43.5398 -0.390951 51.6642 1.1682 59.5022C2.72736 67.3402 6.57576 74.5399 12.2267 80.1907C17.8777 85.8416 25.0775 89.6898 32.9155 91.2487C40.7536 92.8077 48.8779 92.0074 56.2611 88.949C63.6444 85.8906 69.9548 80.7115 74.3946 74.0666C78.8343 67.4218 81.2039 59.6096 81.2037 51.618C81.2037 46.3119 80.1586 41.0577 78.128 36.1554C76.0974 31.2532 73.1211 26.799 69.369 23.047C65.617 19.295 61.1626 16.3188 56.2604 14.2884C51.3581 12.2579 46.1039 11.2129 40.7977 11.213ZM40.7977 84.847C34.2257 84.8468 27.8013 82.8978 22.337 79.2464C16.8726 75.595 12.6137 70.4053 10.0989 64.3335C7.58399 58.2617 6.92609 51.5805 8.20835 45.1347C9.49061 38.689 12.6554 32.7683 17.3026 28.1212C21.9498 23.4741 27.8707 20.3095 34.3165 19.0274C40.7622 17.7453 47.4434 18.4034 53.5152 20.9185C59.5869 23.4336 64.7765 27.6926 68.4277 33.1571C72.0789 38.6215 74.0277 45.046 74.0277 51.618C74.0277 55.9818 73.1682 60.3028 71.4982 64.3344C69.8283 68.366 67.3805 72.0292 64.2948 75.1148C61.2091 78.2004 57.5459 80.648 53.5142 82.3179C49.4826 83.9877 45.1615 84.8471 40.7977 84.847Z" fill="white"/>
</svg>
